<?xml version="1.0" encoding="UTF-8"?>
<svg width="18px" height="18px" viewBox="0 0 18 18" version="1.1" xmlns="http://www.w3.org/2000/svg" xmlns:xlink="http://www.w3.org/1999/xlink">
    <!-- Generator: Sketch 50 (54983) - http://www.bohemiancoding.com/sketch -->
    <title>icon-edit</title>
    <desc>Created with Sketch.</desc>
    <defs></defs>
    <g id="My-Account---Web" stroke="none" stroke-width="1" fill="none" fill-rule="evenodd">
        <g id="my-box-web" transform="translate(-952.000000, -311.000000)" fill="#000000" fill-rule="nonzero">
            <path d="M969.093832,312.891773 L968.096456,311.893899 C967.526478,311.321652 966.752231,311 965.944757,311 C965.137284,311 964.363037,311.321652 963.793059,311.893899 L953.414277,322.277873 C953.345191,322.347295 953.297709,322.43527 953.277581,322.531141 L952.011875,328.381624 C951.978401,328.533552 952.016564,328.692442 952.11538,328.812564 C952.214196,328.932685 952.362703,329.000712 952.518158,328.997065 C952.554336,329.000978 952.59083,329.000978 952.627008,328.997065 L958.474566,327.730726 C958.570389,327.710588 958.65832,327.663082 958.727707,327.593962 L969.106489,317.209987 C969.680673,316.637539 970.002364,315.859233 969.999987,315.04824 C969.99761,314.237248 969.671362,313.460843 969.093832,312.891773 Z M954.505315,322.632448 L963.243743,313.887115 L967.101612,317.746915 L958.360652,326.489715 L954.505315,322.632448 Z M954.087632,323.645519 L957.348088,326.907606 L953.178856,327.816837 L954.087632,323.645519 Z M968.37238,316.472978 L967.828127,317.030167 L963.960132,313.160237 L964.514511,312.605581 C965.305265,311.81495 966.586781,311.81495 967.377536,312.605581 L968.369848,313.59839 C968.752787,313.978396 968.968394,314.495535 968.968869,315.035157 C968.969344,315.57478 968.754648,316.092299 968.37238,316.472978 Z" id="icon-edit"></path>
        </g>
    </g>
</svg>