<?xml version="1.0" encoding="UTF-8"?>
<svg width="17px" height="17px" viewBox="0 0 17 17" version="1.1" xmlns="http://www.w3.org/2000/svg" xmlns:xlink="http://www.w3.org/1999/xlink">
    <!-- Generator: Sketch 50 (54983) - http://www.bohemiancoding.com/sketch -->
    <title>icon-edit</title>
    <desc>Created with Sketch.</desc>
    <defs></defs>
    <g id="Mobile-Web" stroke="none" stroke-width="1" fill="none" fill-rule="evenodd">
        <g id="11-review" transform="translate(-322.000000, -147.000000)" fill="#FFFFFF" fill-rule="nonzero">
            <path d="M338.144174,148.786675 L337.202209,147.844238 C336.663896,147.303783 335.932663,147 335.170049,147 C334.407435,147 333.676201,147.303783 333.137889,147.844238 L323.335706,157.651325 C323.270459,157.716889 323.225614,157.799977 323.206604,157.890522 L322.011216,163.415978 C321.979601,163.559465 322.015643,163.709529 322.10897,163.822977 C322.202296,163.936425 322.342553,164.000673 322.489371,163.997228 C322.523539,164.000924 322.558006,164.000924 322.592174,163.997228 L328.114868,162.801242 C328.205368,162.782222 328.288414,162.737355 328.353945,162.672075 L338.156128,152.864988 C338.698413,152.324342 339.002233,151.589276 338.999988,150.823338 C338.997743,150.0574 338.689619,149.324129 338.144174,148.786675 Z M324.36613,157.986201 L332.61909,149.72672 L336.262633,153.372086 L328.007283,161.629175 L324.36613,157.986201 Z M323.971652,158.94299 L327.050972,162.02385 L323.113364,162.882569 L323.971652,158.94299 Z M337.462803,152.168924 L336.948786,152.695158 L333.29568,149.040224 L333.81926,148.516382 C334.566083,147.769675 335.776405,147.769675 336.523228,148.516382 L337.460412,149.454035 C337.822076,149.812929 338.025705,150.301339 338.026154,150.810982 C338.026603,151.320625 337.823834,151.809393 337.462803,152.168924 Z" id="icon-edit"></path>
        </g>
    </g>
</svg>