<?xml version="1.0" encoding="UTF-8"?>
<svg width="21px" height="20px" viewBox="0 0 21 20" version="1.1" xmlns="http://www.w3.org/2000/svg" xmlns:xlink="http://www.w3.org/1999/xlink">
    <!-- Generator: Sketch 50 (54983) - http://www.bohemiancoding.com/sketch -->
    <title>icon-filter</title>
    <desc>Created with Sketch.</desc>
    <defs></defs>
    <g id="Mobile-Web" stroke="none" stroke-width="1" fill="none" fill-rule="evenodd">
        <g id="05-build" transform="translate(-333.000000, -90.000000)" fill="#FFFFFF">
            <g id="box-header" transform="translate(0.000000, 60.000000)">
                <g id="icon-filter" transform="translate(333.000000, 30.000000)">
                    <path d="M10.411976,12.0540936 C9.53173653,12.0540936 8.80239521,11.3121345 8.80239521,10.4166667 C8.80239521,9.52119883 9.53173653,8.77923977 10.411976,8.77923977 C11.2922156,8.77923977 12.0213054,9.52119883 12.0213054,10.4166667 C12.0213054,11.3121345 11.2922156,12.0540936 10.411976,12.0540936 M20.3712575,9.77704678 L13.2035928,9.77704678 C12.9269461,8.47222222 11.7698084,7.5 10.411976,7.5 C9.05389222,7.5 7.89700599,8.47222222 7.62035928,9.77704678 L0.628742515,9.77704678 C0.276646707,9.77704678 0,10.0584795 0,10.4166667 C0,10.7748538 0.276646707,11.0562865 0.628742515,11.0562865 L7.62035928,11.0562865 C7.89700599,12.3611111 9.05389222,13.3333333 10.411976,13.3333333 C11.7698084,13.3333333 12.9269461,12.3611111 13.2035928,11.0562865 L20.3712575,11.0562865 C20.7233533,11.0562865 21,10.7748538 21,10.4166667 C21,10.0840643 20.6979521,9.77704678 20.3712575,9.77704678" id="Fill-1"></path>
                    <path d="M2.87394958,1.27923977 C3.75630252,1.27923977 4.48739496,2.02119883 4.48739496,2.91666667 C4.48739496,3.8121345 3.75630252,4.55409357 2.87394958,4.55409357 C1.99159664,4.55409357 1.2605042,3.8121345 1.2605042,2.91666667 C1.2605042,2.02119883 1.99159664,1.27923977 2.87394958,1.27923977 M2.87394958,5.83333333 C4.23529412,5.83333333 5.39495798,4.86111111 5.67226891,3.55628655 L20.3697479,3.55628655 C20.7226891,3.55628655 21,3.2748538 21,2.91666667 C21,2.55847953 20.7226891,2.27704678 20.3697479,2.27704678 L5.67226891,2.27704678 C5.39495798,0.972222222 4.23529412,0 2.87394958,0 C1.28571429,0 0,1.33040936 0,2.91666667 C0,4.50292398 1.28571429,5.83333333 2.87394958,5.83333333" id="Fill-4"></path>
                    <path d="M18.1294964,18.6949768 C17.2482014,18.6949768 16.5182374,17.9533061 16.5182374,17.0578776 C16.5182374,16.162449 17.2482014,15.4202667 18.1294964,15.4202667 C19.0107914,15.4202667 19.7410072,16.162449 19.7410072,17.0578776 C19.7410072,17.9533061 19.0107914,18.6949768 18.1294964,18.6949768 M18.1294964,14.1666667 C16.770036,14.1666667 15.6369424,15.1391021 15.3345324,16.4182857 L0.629496403,16.4182857 C0.276978417,16.4182857 0,16.6994503 0,17.0578776 C0,17.4157932 0.276978417,17.6974694 0.629496403,17.6974694 L15.3345324,17.6974694 C15.6115108,19.0019809 16.770036,20 18.1294964,20 C19.7158273,20 21,18.6949768 21,17.0832054 C21,15.471434 19.6906475,14.1666667 18.1294964,14.1666667" id="Fill-6"></path>
                </g>
            </g>
        </g>
    </g>
</svg>